<?xml version="1.0" encoding="UTF-8" standalone="no"?>
<!-- Created with Inkscape (http://www.inkscape.org/) -->

<svg
   width="221.11623"
   height="243.34296"
   viewBox="0 0 58.503667 64.38449"
   version="1.1"
   id="svg1"
   xmlns:inkscape="http://www.inkscape.org/namespaces/inkscape"
   xmlns:sodipodi="http://sodipodi.sourceforge.net/DTD/sodipodi-0.dtd"
   xmlns="http://www.w3.org/2000/svg"
   xmlns:svg="http://www.w3.org/2000/svg">
  <sodipodi:namedview
     id="namedview1"
     pagecolor="#ffffff"
     bordercolor="#666666"
     borderopacity="1.0"
     inkscape:showpageshadow="2"
     inkscape:pageopacity="0.0"
     inkscape:pagecheckerboard="true"
     inkscape:deskcolor="#d1d1d1"
     inkscape:document-units="px">
    <inkscape:page
       x="0"
       y="0"
       width="58.503666"
       height="64.384491"
       id="page2"
       margin="0"
       bleed="0" />
  </sodipodi:namedview>
  <defs
     id="defs1" />
  <g
     inkscape:label="Layer 1"
     inkscape:groupmode="layer"
     id="layer1"
     transform="translate(-4.5573612,-1.8543138)">
    <path
       d="m 61.474823,25.846627 c -0.08273,-1.271123 -1.146836,-1.761816 -2.418361,-0.857504 -2.91309,-0.523379 -5.77251,-0.277226 -7.18285,-0.395863 -3.091854,-0.43299 -5.665977,-2.069307 -5.665977,-2.069307 0.376091,-0.499973 0.196117,-1.580629 -2.218613,-1.65488 -0.664211,-0.218714 -1.346179,-0.535485 -1.990618,-0.798587 0.219521,-0.462043 -0.05367,-1.144413 -0.05367,-1.144413 0.982597,-0.271173 1.133115,-1.550367 0.745726,-2.303759 1.253366,0.03389 1.054023,-1.903858 0.880907,-2.57493 0.982598,-0.372461 1.118185,-1.545927 0.711425,-2.473241 1.185573,-0.270769 1.219469,-1.6601258 1.118184,-2.6423203 1.21947,-0.067793 1.05039,-2.2020676 1.05039,-2.6427233 1.050795,-0.6775292 0.813519,-1.592333 0.978564,-2.6524096 0.647668,-1.311474 -0.232837,-1.6839339 -0.85387,-0.2865066 -0.666229,1.2109967 -1.520908,1.739622 -1.51324,2.6342496 0.304665,0.5080462 -2.269862,1.2533671 -1.456748,2.8457001 -0.576242,0.7114244 -1.930895,1.6262291 -1.449483,2.7169741 -0.244538,0.535081 -1.972458,1.788851 -1.227137,2.974425 -1.625824,1.084288 -1.528978,1.345777 -1.185574,2.337655 -0.46285,0.296999 -0.935384,0.751374 -1.208574,1.248525 -0.532258,-0.632737 -1.050391,-1.787239 -1.042724,-3.346886 0,-1.321563 -2.461135,0.128326 -2.461135,2.737555 0,0.224362 -0.023,0.428146 -0.05448,0.622244 -0.851451,0.09805 -1.917175,0.285297 -3.260529,0.602876 -0.04278,0.02945 -0.06335,0.07505 -0.07344,0.127518 -0.05286,-0.195713 -0.09322,-0.403935 -0.111778,-0.626685 -0.234853,-1.529382 -1.991021,-3.857755 -2.847716,-0.982194 -0.442269,1.053619 -0.702143,1.772309 -0.853468,2.336041 0,0 -0.135586,0.09121 -0.386179,0.246154 -1.056847,0.654526 -1.437377,2.698007 -5.276166,3.988095 -1.295737,0.43541 -2.986129,0.784869 -5.229355,0.966456 -3.861792,0.311929 -11.25367,6.986735 -11.7488027,13.355663 -0.1142037,1.599595 0.1250933,5.543304 1.4510976,9.002773 8.067e-4,0.0025 0.00121,0.0056 0.00198,0.0081 0.0061,0.01694 0.012964,0.03268 0.01937,0.04923 0.020986,0.05406 0.041561,0.107738 0.062943,0.160605 0.1129836,0.289736 0.2336433,0.566961 0.3611601,0.832081 0.7606548,1.625422 1.7997467,3.0628 3.201614,3.987693 0.711829,0.555257 1.348599,0.911173 1.764237,1.114552 2.383656,3.934022 7.441916,8.979368 16.978561,5.996065 14.630011,-4.14991 22.703857,5.572359 23.633996,6.254728 1.371602,1.385323 -3.545422,-12.039342 -13.956923,-18.07334 -6.155056,-3.358183 -2.291248,-9.142396 -1.850188,-11.185068 0,0 4.933971,3.453013 8.509254,-1.82396 3.229862,0.832081 5.393998,-0.589963 8.171906,0.415637 1.687969,0.739672 8.784866,0.292962 6.147388,-3.673746 1.658511,-1.082673 1.833646,-0.732409 2.663304,-2.380832 0.445499,-1.998284 -0.566153,-2.426028 -0.874451,-2.972408 z M 33.109426,20.48007 c -0.01654,0.0073 -0.0347,0.01614 -0.05043,0.0226 0.01573,-0.01373 0.03026,-0.02501 0.04641,-0.04116 0.0012,0.0056 0.0029,0.01296 0.0041,0.01856 z m -5.41256,1.825169 c -0.02946,0.173116 -0.0577,0.334528 -0.08554,0.490695 0.01495,-0.335739 0.03429,-0.691652 0.05771,-1.067744 0.0097,0.175537 0.02017,0.364791 0.02785,0.577049 z m 4.314956,-2.555561 c 0.301034,0.45357 0.670669,0.879294 0.670669,0.879294 0,0 -0.353091,-0.31879 -0.670669,-0.879294 z"
       fill="#a04d32"
       stroke="#000000"
       stroke-width="1.21059"
       id="path1" />
    <path
       d="m 10.247789,49.328492 c 0,0 4.043781,14.569481 18.783957,9.959143 14.630013,-4.149913 22.703859,5.572356 23.633997,6.254727 1.371602,1.385322 -3.545421,-12.039345 -13.956923,-18.07334 -6.155055,-3.358184 -2.291247,-9.142397 -1.850189,-11.185069 0,0 4.933972,3.453013 8.509256,-1.82396 3.22986,0.832081 5.393998,-0.589962 8.171904,0.415638 1.687969,0.73967 8.784866,0.292962 6.147389,-3.673746 1.658512,-1.082673 1.833644,-0.732409 2.663304,-2.380833 0.445901,-1.998284 -0.565751,-2.425623 -0.874049,-2.972406 -0.08273,-1.271124 -1.146834,-1.761817 -2.41836,-0.857505 -2.91309,-0.52338 -5.772509,-0.277226 -7.182849,-0.395864 -3.091853,-0.432987 -5.665978,-2.069306 -5.665978,-2.069306 0.376092,-0.499974 0.196117,-1.580629 -2.218612,-1.654881 -1.326405,-0.43662 -2.724639,-1.265471 -3.747995,-1.275963 -1.035863,0 -1.175887,-1.023758 -1.175887,-1.023758 -0.648072,-0.351073 -1.583456,-1.715815 -1.573369,-3.808525 0,-1.321563 -2.461136,0.128327 -2.461136,2.737554 0,2.60923 -2.34774,3.130592 -2.34774,3.130592 0,0 -1.0286,-0.920453 -1.152082,-2.404236 -0.234854,-1.529383 -1.99102,-3.857756 -2.847717,-0.982195 -1.30179,3.085397 -1.406304,3.805297 -1.660531,5.308046 -0.528625,3.111626 -0.139215,3.233089 -0.139215,3.233089 l -13.245497,9.454728 z"
       fill="#77aa99"
       stroke="#000000"
       stroke-width="0.201765"
       id="path2" />
    <g
       fill="#314b49"
       id="g7"
       transform="matrix(0.40353087,0,0,0.40353087,4.5608274,1.8571194)">
<path
   d="m 91.756,56.215 c 1.548,-0.562 0.896,-0.415 1.152,-0.581 -2.959,0.575 -9.635,0.614 -14.317,-1.133 0.392,0.23 2.568,0.962 2.845,1.128 0.218,0.715 0.1,1.438 2.932,2.709 2.559,0.793 5.845,0.461 6.835,-0.529 0.109,-1.684 0.126,-1.065 0.553,-1.594 z"
   stroke="#314b49"
   stroke-linecap="round"
   stroke-linejoin="round"
   stroke-width="0.75"
   id="path3" />

<path
   d="m 124.12,75.361 c -2.829,-2.085 -4.881,-0.264 -6.469,-0.413 0.99,-0.645 3.762,-2.062 8.245,-2.062 2.532,0 3.879,2.196 5.57,2.207 1.141,0.007 4.472,-1.71 5.14,-2.378 -0.969,0.838 0.454,1.755 -0.489,3.003 -0.282,0.359 -0.837,1.511 -2.663,2.051 -2.05,0.971 -5.411,1.762 -9.334,-2.408 z"
   stroke="#314b49"
   stroke-width="0.5"
   id="path4" />

<path
   d="m 62.577,37.415 c 0,0 -3.355,7.996 0.312,15.329 3.667,7.333 0.522,-6.829 4.688,-4.162 3.397,0.385 -2.387,-3.215 -2.033,-7.819 -0.176,-2.892 -1.77,-5.194 -2.967,-3.348 z"
   id="path5" />

<path
   d="m 126.98,63.799 c 0,1.121 -1.363,2.03 -3.045,2.03 3.573,-1.121 -0.201,-4.653 -3.045,-2.03 0,-1.121 1.363,-2.03 3.045,-2.03 1.682,0 3.045,0.909 3.045,2.03 z"
   id="path6" />

<path
   d="m 121.81,61.215 c 3.772,-0.231 6.336,0.323 5.536,3.138 0.548,-1.126 1.292,-2.83 -1.046,-3.507 -1.746,-0.388 -3.299,-0.378 -4.49,0.369 z"
   id="path7" />

</g>
    <path
       d="m 31.829023,35.195227 c 0,-1.420833 -0.608928,-2.891703 -2.840858,-5.884692 -0.659772,-0.88454 -1.05725,-1.749709 -1.295738,-2.532154 -0.565346,-1.329637 -1.382496,-3.235915 -0.247363,-6.954049 0,0 0.250592,-0.154956 0,0 -1.056848,0.654526 -1.437378,2.698008 -5.276165,3.988096 -1.295739,0.435409 -2.986131,0.784868 -5.229359,0.966455 -3.861387,0.31193 -11.2532649,6.986735 -11.7483976,13.355663 -0.1142038,1.599596 0.1250933,5.543304 1.4510975,9.002772 8.067e-4,0.0025 0.00121,0.0056 0.00198,0.0081 0.0061,0.01694 0.012964,0.03268 0.01937,0.04923 0.020986,0.05406 0.041561,0.107735 0.062943,0.160604 0.1129836,0.289735 0.2336449,0.566961 0.3611601,0.832081 0.7606563,1.625423 1.7997482,3.0628 3.201614,3.987692 1.244489,0.970088 2.262193,1.334073 2.262193,1.334073 -1.044336,-1.443833 -1.52131,-3.051501 -0.913189,-4.971499 0.262699,1.06411 0.767918,1.679494 1.471274,1.927666 -0.248173,-0.760252 -0.33372,-1.432131 0,-1.876823 1.035863,2.717377 2.160101,3.644288 3.29725,4.312133 -1.061688,-1.982952 -1.627037,-4.037328 -1.521713,-6.188954 1.036668,2.432484 2.661688,4.013114 4.261285,5.63087 -1.525343,-2.407478 -2.788798,-4.884352 -2.815431,-7.685663 0.683177,1.121009 1.587894,1.990215 2.663305,2.663707 -0.679143,-1.093165 -1.010847,-2.223455 -0.913191,-3.398941 1.78522,1.995462 3.777452,2.666129 5.783403,3.24681 -2.097149,-1.462799 -3.971954,-3.041411 -4.9715,-5.07319 1.199294,0.590769 2.400203,0.683179 3.601917,0.558085 -1.495486,-0.755411 -2.045499,-2.119346 -2.333619,-3.652763 2.089078,2.130241 4.272181,3.561967 6.493215,4.718084 -2.201665,-2.122575 -3.825069,-4.297606 -4.667238,-6.544465 0.847414,0.476168 1.677478,0.70053 2.485749,0.608929 -1.116165,-1.260631 -1.398234,-2.494629 -1.699267,-3.729029 1.06411,1.580226 2.00111,2.430064 2.866278,2.866279 -0.883327,-1.808625 -0.820781,-3.402571 -0.202974,-4.869809 1.018511,0.675913 1.978109,1.733164 2.790415,3.754046 0.294982,-0.962823 -0.180377,-2.56807 -0.761059,-4.261285 0.877679,0.250995 1.928474,1.352232 3.29725,4.007868 -0.133161,-1.559646 -0.863151,-3.137452 -1.673846,-4.718082 1.221489,1.416392 3.049485,5.130088 2.739168,4.362169 z"
       fill="#a04d32"
       stroke="#000000"
       stroke-width="0.201765"
       id="path8" />
    <path
       d="m 38.423121,19.434117 c 0,0 -0.101701,3.015184 2.710516,1.050392 1.456747,0.0339 0.813115,-1.558436 0.813115,-1.558436 0.982597,-0.271173 1.133115,-1.550367 0.745725,-2.303759 1.253367,0.03389 1.054023,-1.903858 0.880909,-2.57493 0.982597,-0.372461 1.118184,-1.545927 0.711425,-2.473241 1.185572,-0.270769 1.219469,-1.6601258 1.118183,-2.6423203 1.21947,-0.067793 1.050391,-2.2020676 1.050391,-2.6427233 1.050793,-0.6775292 0.813518,-1.592333 0.978562,-2.6524096 0.647667,-1.311474 -0.232838,-1.6839339 -0.853871,-0.2865066 -0.666229,1.2109967 -1.520908,1.739622 -1.51324,2.6342496 0.304666,0.5080462 -2.269862,1.2533671 -1.456748,2.8457001 -0.576242,0.7114244 -1.930895,1.6262291 -1.449483,2.7169741 -0.244538,0.535081 -1.972457,1.788851 -1.227136,2.974425 -1.625825,1.084288 -1.528979,1.345777 -1.185574,2.337655 -0.86961,0.556873 -1.779168,1.666986 -1.322774,2.57493 z"
       fill="#796958"
       stroke="#000000"
       stroke-width="0.201765"
       id="path9" />
    <g
       fill="#ffffff"
       id="g15"
       transform="matrix(0.40353087,0,0,0.40353087,4.5608274,1.8571194)">
<path
   d="m 101.74,8.295 c 0,0 -0.735,1.324 -0.735,2.133 0,0.809 2.185,0.568 2.927,-0.227 -1.625,0.024 -2.965,0.289 -2.192,-1.906 z"
   id="path10" />

<path
   d="m 97.478,14.565 c 0,0 -0.812,1.068 -0.183,2.316 0.392,0.98 2.807,0.962 3.549,0.167 -1.625,0.024 -4.14,-0.287 -3.366,-2.483 z"
   id="path11" />

<path
   d="m 94.343,21.02 c 0,0 -0.998,1.346 -0.492,2.602 0,0.809 2.838,0.956 3.58,0.161 -1.625,0.022 -3.645,-0.489 -3.088,-2.763 z"
   id="path12" />

<path
   d="m 91.266,28.182 c 0,0 -1.403,1.542 -0.149,2.945 1.438,0.809 3.744,0.049 4.486,-0.746 -1.625,0.022 -4.894,0.076 -4.337,-2.199 z"
   id="path13" />

<path
   d="m 88.261,33.903 c 0,0 -1.575,1.414 -0.02,3.312 1.438,0.809 4.57,0.198 5.312,-0.597 -1.624,0.024 -5.989,-1.346 -5.292,-2.715 z"
   id="path14" />

<path
   d="m 85.114,40.644 c 0,0 -1.403,1.542 -0.149,2.945 1.438,0.809 6.036,-0.186 6.778,-0.981 -1.625,0.023 -7.185,0.311 -6.629,-1.964 z"
   id="path15" />

</g>
    <path
       d="m 38.456211,19.480119 c -0.18159,-0.181588 -0.215487,-0.361562 -0.148093,-0.693265 0,0 0.148901,-1.6573 -6.59087,-0.06375 -0.432586,0.298613 0.966859,1.905474 0.966859,1.905474 0,0 0.168678,0.08675 0.422497,-0.167465 0.102094,0.453164 0.343809,1.646808 0.09403,1.847768 0.502394,-0.311123 0.753794,-0.785271 0.676317,-1.664567 0.856292,0.186028 1.510012,0.661792 1.893366,1.524945 0.122668,-0.564945 0.24333,-1.129484 -0.154956,-1.66497 0.880505,0.115012 1.565701,0.603684 2.163733,1.26063 0.08918,-0.376494 0.142846,-0.759847 0,-1.182747 0.561312,0.190871 1.043934,0.648473 1.4971,1.205749 4.03e-4,0 0.08516,-1.558435 -0.819975,-2.307792 z"
       fill="#a04d32"
       stroke="#000000"
       stroke-width="0.201765"
       id="path16" />
    <path
       d="m 31.990838,30.636134 c 0,0 2.728273,5.483986 7.100127,5.645801 4.371851,0.161815 4.371851,-1.10164 4.371851,-1.10164 0,0 -6.265622,1.229963 -11.471978,-4.544161 z"
       opacity="0.26"
       id="path17"
       style="stroke-width:0.403531" />
    <path
       d="m 33.263978,33.740901 c 0.919647,1.25256 1.959546,2.106835 3.116067,2.575335 0,0 -2.972006,4.48242 -1.457152,8.079897 1.514855,3.597477 5.296345,4.460226 9.410744,8.574628 3.204843,3.204842 6.923783,10.072535 6.923783,10.072535 0,0 -7.196569,-5.720456 -11.871879,-5.439193 0,0 -1.084287,-3.901338 -4.271373,-7.088424 -4.537302,-4.537704 -6.524287,-10.44136 -1.85019,-16.774778 z"
       opacity="0.26"
       id="path18"
       style="stroke-width:0.403531" />
    <path
       d="m 25.69051,22.690209 c -1.563277,1.00923 -3.397326,2.863454 -9.852206,3.261739 -6.8797973,2.737554 -11.0700615,10.768221 -9.5947521,16.328474 0.5439591,2.952634 1.5701374,5.722067 1.5701374,5.722067 -0.3579312,-2.388498 -0.5580819,-4.599041 0.4168481,-5.487615 0.5790666,0.962016 1.1980832,0.995912 1.8187136,1.000352 -0.641615,-0.970088 -0.7215136,-1.940177 0,-2.910264 0.600857,0.615382 1.207363,0.759041 1.818714,0.545977 -0.858714,-0.988248 -0.753393,-1.956318 0,-2.909861 0.560101,2.026532 1.800554,3.007514 3.091852,3.909812 -0.890996,-1.748501 -1.681109,-3.499421 -1.182346,-5.27415 0.533872,0.294175 1.047164,0.259874 1.545928,0 -0.507237,-0.635965 -0.373266,-1.272333 0,-1.909509 1.189205,1.226735 2.507137,1.502749 3.81942,1.818714 -1.073795,-0.990264 -2.236772,-1.826785 -2.728273,-3.819419 0.605701,-0.730796 1.319143,-1.083481 2.182296,-0.909155 -0.767112,-0.470921 -0.665825,-1.026179 0,-1.637126 0.842977,0.445499 1.692811,0.545574 2.54628,0.454779 -1.132712,-0.677932 -3.399345,-2.015232 4.547388,-8.184815 z"
       fill="#ffffff"
       opacity="0.18"
       id="path19"
       style="stroke-width:0.403531" />
    <path
       d="m 36.408695,15.081229 c 0.401916,-0.388599 0.462447,-0.262294 0.344614,0.115012 -0.396267,0.952332 0.14245,1.875208 0.321615,2.504313 l -1.562068,0.04599 c 0.04358,-0.916419 0.09967,-1.934526 0.895839,-2.665321 z"
       fill="#ffffff"
       opacity="0.27"
       id="path20"
       style="stroke-width:0.403531" />
    <g
       transform="matrix(0.52632532,0,0,0.52632532,-11.543686,-19.28709)"
       id="g30">
	
	
	
	
	
	
	
	
	
	
	
	<g
   transform="translate(72.628,100.9)"
   id="g29"><g
   class="st1"
   id="g21"
   style="opacity:0.2">
		<path
   class="st2"
   d="M 48,14 H 16 c -2.2,0 -4,1.8 -4,4 v 32 c 0,2.2 1.8,4 4,4 h 32 c 2.2,0 4,-1.8 4,-4 V 18 c 0,-2.2 -1.8,-4 -4,-4 z"
   id="path21"
   style="fill:#231f20" />

	</g>

		<path
   class="st3"
   d="M 48,12 H 16 c -2.2,0 -4,1.8 -4,4 v 32 c 0,2.2 1.8,4 4,4 h 32 c 2.2,0 4,-1.8 4,-4 V 16 c 0,-2.2 -1.8,-4 -4,-4 z"
   id="path22"
   style="fill:#e0995e" />

	<g
   class="st1"
   id="g22"
   style="opacity:0.2">
		<rect
   class="st2"
   x="16"
   y="18"
   width="32"
   height="32"
   id="rect22"
   style="fill:#231f20" />

	</g>

		<rect
   class="st4"
   x="16"
   y="16"
   width="32"
   height="32"
   id="rect23"
   style="fill:#ffffff" />

	
		<rect
   class="st5"
   x="22"
   y="24"
   width="20"
   height="2"
   id="rect24"
   style="fill:#e0e0d1" />

	
		<rect
   class="st5"
   x="22"
   y="28"
   width="20"
   height="2"
   id="rect25"
   style="fill:#e0e0d1" />

	
		<rect
   class="st5"
   x="22"
   y="32"
   width="20"
   height="2"
   id="rect26"
   style="fill:#e0e0d1" />

	
		<rect
   class="st5"
   x="22"
   y="36"
   width="20"
   height="2"
   id="rect27"
   style="fill:#e0e0d1" />

	
		<rect
   class="st5"
   x="22"
   y="40"
   width="20"
   height="2"
   id="rect28"
   style="fill:#e0e0d1" />

	<g
   class="st1"
   id="g28"
   style="opacity:0.2">
		<path
   class="st2"
   d="M 37,12 H 24 v 5 c 0,1.7 1.3,3 3,3 h 10 c 1.7,0 3,-1.3 3,-3 v -5 z"
   id="path28"
   style="fill:#231f20" />

	</g>

		<path
   class="st6"
   d="M 37,10 H 24 v 5 c 0,1.7 1.3,3 3,3 h 10 c 1.7,0 3,-1.3 3,-3 v -5 z"
   id="path29"
   style="fill:#4f5d73" />

	</g>

</g>
  </g>
</svg>
