<?xml version="1.0" encoding="UTF-8"?>
<!-- Created with Inkscape (http://www.inkscape.org/) -->
<svg width="221.12" height="243.34" version="1.1" viewBox="0 0 58.504 64.384" xmlns="http://www.w3.org/2000/svg">
 <g transform="translate(-4.5574 -1.8543)">
  <path class="st2" d="m51.799 10.22h-35.979c-2.4736 0-4.4974 2.3826-4.4974 5.2948v42.358c0 2.9121 2.0238 5.2948 4.4974 5.2948h35.979c2.4736 0 4.4974-2.3826 4.4974-5.2948v-42.358c0-2.9121-2.0238-5.2948-4.4974-5.2948z" fill="#231f20" opacity=".2" stroke-width="1.22"/>
  <path class="st3" d="m51.799 7.5727h-35.979c-2.4736 0-4.4974 2.3826-4.4974 5.2948v42.358c0 2.9121 2.0238 5.2948 4.4974 5.2948h35.979c2.4736 0 4.4974-2.3826 4.4974-5.2948v-42.358c0-2.9121-2.0238-5.2948-4.4974-5.2948z" fill="#e0995e" stroke-width="1.22"/>
  <g class="st1" transform="matrix(1.1027 0 0 1.3237 -1.4758 -8.3116)" opacity=".2">
   <rect class="st2" x="16" y="18" width="32" height="32" fill="#231f20"/>
  </g>
  <rect class="st4" x="16.167" y="12.867" width="35.285" height="42.358" fill="#fff" stroke-width="1.2081"/>
  <g fill="#e0e0d1" stroke-width="1.276">
   <rect class="st5" x="21.509" y="23.457" width="24.601" height="2.6474"/>
   <rect class="st5" x="21.509" y="28.752" width="24.601" height="2.6474"/>
   <rect class="st5" x="21.509" y="34.047" width="24.601" height="2.6474"/>
   <rect class="st5" x="21.509" y="39.341" width="24.601" height="2.6474"/>
   <rect class="st5" x="21.509" y="44.636" width="24.601" height="2.6474"/>
  </g>
  <g class="st1" transform="matrix(1.23 0 0 1.3237 -5.5517 -8.3116)" opacity=".2">
   <path class="st2" d="m37 12h-13v5c0 1.7 1.3 3 3 3h10c1.7 0 3-1.3 3-3v-5z" fill="#231f20"/>
  </g>
  <path class="st6" d="m39.959 4.9253h-15.99v6.6185c0 2.2503 1.599 3.9711 3.6901 3.9711h12.3c2.091 0 3.6901-1.7208 3.6901-3.9711v-6.6185z" fill="#4f5d73" stroke-width="1.276"/>
 </g>
</svg>
